<svg id="Layer_1" data-name="Layer 1" xmlns="http://www.w3.org/2000/svg" viewBox="0 0 1730 1622"><defs><style>.cls-1,.cls-5{fill:#fc0;}.cls-2{fill:#ffd21d;}.cls-3,.cls-4,.cls-5{stroke:#000;stroke-miterlimit:10;stroke-width:5px;}.cls-4{fill:#fff;}</style></defs><circle class="cls-1" cx="880.48" cy="832.41" r="357.38"/><path class="cls-2" d="M1179.42,814c-.05-1-.09-2-.13-2.91s-.18-1.77-.25-2.49c-.14-1.45-.24-2.39-.24-2.39-.7.06-1.39.21-2.1.31.49,1.36,1,2.65,1.46,3.89S1179,812.8,1179.42,814Z"/><path class="cls-2" d="M1205.59,820.62c0-.88-.09-1.78-.13-2.67a8.07,8.07,0,0,1-1.71.59A22.32,22.32,0,0,1,1205.59,820.62Z"/><path class="cls-2" d="M1176.63,806.49c-3.89.65-7.72,1.92-11.61,2.61a22.51,22.51,0,0,1-11.94-.64c-.19-2-.48-4.91-.76-7.86-.1-1.48-.36-3-.57-4.3s-.39-2.58-.54-3.57c-4.84-3.25-8.51,1.29-12.78,1.88-.57-3.74-1.09-7.49-3.21-7.11a5.61,5.61,0,0,0-4-.23,4.21,4.21,0,0,0-1.51.94q-.16.15-.33.33c-.12.09-.23.19-.34.29a6.4,6.4,0,0,0-.62.65c-1.56,1.87-2.43,4.77-2.56,8.31,6.72,3,12.1,7.92,17.15,13.05,2.59,2.57,4.67,5.19,6.78,7.6a80,80,0,0,0,6,6.4,16.55,16.55,0,0,0,5.39,3.66,5.79,5.79,0,0,0,5.24-.69c1.83-1.14,3.48-3.28,5.19-6.73a57.26,57.26,0,0,0,2.59-6.19c.44-1.21.9-2.51,1.32-3.91S1176.27,808.09,1176.63,806.49Z"/><path class="cls-2" d="M1195,841.12l0-11.93v-3c0-1-.09-2-.12-3l-.3-6c-5.05-2.26-10.12-5.16-14.94-2.54,1,2.89,2.1,5.51,3.24,7.94.56,1.22,1.16,2.38,1.74,3.51s1.09,2.2,1.68,3.26A59.54,59.54,0,0,0,1195,841.12Z"/><path class="cls-2" d="M1181.19,711.85c1.21-.48,2.12-.37,1.73,4.32-.58-1.53-1.07-2.94-1.73-4.32-1.16.4-2.73,1.31-4.27-.32l1.62,2.64,1.49,2.76c1,1.87,2,3.77,3,5.7s2,3.92,3.06,5.91,1.8,4.13,2.72,6.22A185,185,0,0,1,1198.1,761c2.7,1.88,5.43,3.72,8.13,5.38-5.25-22.88-12.7-45.27-23-65s-23.33-36.85-38.49-48.86c.92,1.34,1.84,2.66,2.75,3.94l1.36,1.9c.46.62.85,1.28,1.28,1.91,1.67,2.54,3.33,5,5,7.33l2.49,3.49c.82,1.16,1.54,2.36,2.32,3.51l4.6,6.9c.77,1.15,1.56,2.28,2.3,3.44l2.13,3.55c1.41,2.39,2.83,4.79,4.27,7.25a87,87,0,0,1,4,7.75C1178.59,706.16,1179.89,708.94,1181.19,711.85Z"/><path class="cls-2" d="M1219.7,767.57c.36,1.65.74,3.2,1.08,4.85C1221.79,767.69,1221,767.35,1219.7,767.57Z"/><path class="cls-2" d="M611.44,707.12q-.88,2.26-1.71,4.51c-.49,1.52-.91,3.07-1.33,4.59q-1.26,4.57-2.28,9.06c-.58,3-1,6.08-1.4,9.07a81.81,81.81,0,0,0-.84,8.95c-.13,3-.21,5.94-.26,8.86l0,2.18c0,.73.06,1.47.08,2.2.08,1.46.15,2.92.23,4.38.17,2.9.32,5.76.53,8.61s.7,5.7,1,8.55l.63-8.7,1.14-8.66.57-4.35c.22-1.45.54-2.87.8-4.31.54-2.87,1.08-5.75,1.62-8.61.23-1.45.67-2.84,1-4.26s.69-2.83,1-4.24.68-2.83,1-4.24c.17-.7.32-1.42.52-2.11l.62-2.08c1.69-5.51,3.13-11.11,5.12-16.41,7.29-21.53,16.38-41.24,24.47-58.53A343.84,343.84,0,0,0,611.44,707.12Z"/><path class="cls-2" d="M633.15,880.06c-.06-.9-.13-1.8-.19-2.69l-.12-1.32,0-1.27c0-1.69-.15-3.34-.28-5s-.3-3.24-.5-4.82c-.09-.8-.25-1.58-.3-2.37l-.21-2.34c-.32-3.11-.77-6.14-1.34-9.11s-.86-5.92-1.48-8.82q-.44-2.18-1-4.32c-.28-1.44-.52-2.86-.82-4.29-.58-2.84-1.26-5.67-2-8.49-.59-2.82-1.21-5.62-1.91-8.44-.37-1.42-.73-2.83-1.1-4.23s-.59-2.82-.91-4.23c0,1.41-.1,2.8-.07,4.21l.17,4.22c.09,2.79.17,5.59.26,8.38s.47,5.56.7,8.34l.31,4.15c.17,1.38.38,2.76.56,4.14L624,850c.42,2.74,1,5.46,1.46,8.17.8,5.45,2.27,10.81,3.43,16.17l1,1.41c.32.47.66,1,1,1.44C631.63,878.2,632.38,879.16,633.15,880.06Z"/><path class="cls-2" d="M615.71,850.8c-.19-6.55-1.2-12.81-1.79-18.94-.19-1.53-.41-3.05-.66-4.57l-.39-2.27c-.12-.76-.18-1.51-.29-2.26-.39-3-.87-6-1.42-9-.15-.74-.29-1.49-.44-2.23s-.21-1.48-.33-2.22c-.22-1.48-.46-3-.71-4.44s-.53-3-.8-4.45-.61-3-.78-4.45q-.65-4.44-1.4-8.92c-.22-1.5-.56-3-.71-4.51s-.35-3-.53-4.5c-.11,1.63-.23,3.25-.34,4.88s0,3.26-.06,4.89c0,3.24,0,6.46,0,9.65q.33,4.8.65,9.53c.14,1.57.18,3.13.4,4.69s.45,3.1.67,4.64c.48,3.07.87,6.1,1.46,9.08s1.38,5.92,2.09,8.8c.37,1.44.69,2.87,1.11,4.28s.93,2.8,1.4,4.19C613.78,845.47,614.73,848.17,615.71,850.8Z"/><path class="cls-2" d="M1023.64,392c3.85.33,7.43.92,10.87,1.43s6.7,1,9.79,1.56c6.22,1,11.59,2.3,16.4,3.44s9,2.24,12.54,3.33,6.51,2.23,9,3.21c2.76-.36,6-.69,9.68-1,1.86-.13,3.88-.32,6-.37s4.39-.1,6.82-.11l-4.94-2.62a525.48,525.48,0,0,0-94.66-25.2c-6.81-.36-13.43-.59-19.71-.59-6.32.21-12.3.65-17.76,1.37l14.2,3.32c2.37.51,4.7,1.22,7,1.86l7,1.94,7,1.95c1.16.33,2.33.63,3.49,1l3.45,1.1Z"/><path class="cls-2" d="M1082.21,405a55.47,55.47,0,0,0-11.81,2.47c-2.2.85-2.85,1.71-2.44,2.41.81,1.42,5.74,2.6,11,3.13C1089.46,414,1101.47,412.67,1082.21,405Z"/><path class="cls-2" d="M887.58,494.86h-3.36l-9.72,1.44Z"/><path class="cls-2" d="M599.45,549.91a599.22,599.22,0,0,1,49.3-47.24,356.37,356.37,0,0,0-50.1,47.26l-5.35,6.35-2.63,3.16c-.84,1.08-1.65,2.18-2.46,3.26-3.25,4.36-6.43,8.64-9.42,12.94s-5.61,8.77-8.22,13.07c-.64,1.08-1.32,2.13-1.9,3.23l-1.75,3.29q-1.73,3.27-3.35,6.48c3.38-4.52,8.34-7.88,11.95-12.16.93-2.85,2.1-6,3.51-9.32.72-1.65,1.42-3.41,2.33-5.07s1.83-3.4,2.84-5.13A122,122,0,0,1,591,559.59,115.2,115.2,0,0,1,599.45,549.91Z"/><path class="cls-2" d="M1042.79,513.72c-1.6-.71-3.3-1.24-4.94-1.85l-5-1.78-5-1.76-2.47-.88c-.82-.28-1.67-.51-2.5-.77l-10-3c-1.67-.48-3.31-1-5-1.43l-5.05-1.22-10-2.4c-3.36-.71-6.75-1.27-10.1-1.9l-5-.92-2.5-.45-2.53-.33-10.06-1.28c-1.68-.2-3.33-.44-5-.6l-5-.37-10-.71c-1.65-.15-3.32-.12-5-.16l-5-.09-4.94-.08-2.46,0-1.22,0-1.24.05-9.8.37-4.86.2c-1.62,0-3.24.27-4.85.39l-9.62.92c-1.59.18-3.18.24-4.77.52l-4.74.71c-51.09-.08-101.35,12.63-143.09,36A261,261,0,0,0,685.3,572.5a234.71,234.71,0,0,0-39.92,51.76c-8.78,16.43-19.14,35.11-28.25,55.88a298.59,298.59,0,0,0-21,67l-.82,4.36c-.29,1.44-.4,2.93-.61,4.39l-1.11,8.75-.27,2.18-.14,2.19-.27,4.37c-.16,2.91-.41,5.78-.46,8.66a188.71,188.71,0,0,0,2.28,33.48c3.46,21.38,11,40.34,21.73,54.42,0-1.67-.09-3.33-.17-5s0-3.25,0-4.84c-.07-3.18-.34-6.28-.58-9.31,1.86,4.38,3.93,8.54,6,12.49.49,1,1.12,2,1.71,2.9l1.8,2.82c1.2,1.85,2.42,3.63,3.66,5.36l.5,2.24.65,2.32,1.29,4.63,1.27,4.63.62,2.31c.2.77.49,1.51.73,2.26,2,6,3.77,12.06,6.14,17.79l1.64,4.35c.53,1.45,1,2.91,1.71,4.3q1.86,4.2,3.66,8.42l.89,2.11c.32.69.68,1.35,1,2l2,4.07,2,4.07c.33.67.63,1.36,1,2l1.1,2c1.47,2.61,2.9,5.22,4.32,7.84.66,1.33,1.52,2.54,2.29,3.81l2.33,3.76,2.29,3.78c.78,1.24,1.66,2.41,2.48,3.63l4.93,7.23c3.61,4.56,6.88,9.36,10.72,13.65l2.75,3.33c.46.54.88,1.13,1.38,1.65l1.47,1.57q2.93,3.14,5.79,6.33a242.15,242.15,0,0,0,53.46,42,291.51,291.51,0,0,0,30.84,15.1,301.78,301.78,0,0,0,33.2,10.87,57.82,57.82,0,0,0,9.91,1.26l1.2,0,1.21,0,2.4-.14,4.72-.35,2.34-.18,1.16-.07,1.19-.14c1.58-.19,3.16-.35,4.75-.44s3.21-.14,4.84-.08l1.23,0h1.26c.85,0,1.7,0,2.57.12a230.92,230.92,0,0,0,41.9-.83,1.91,1.91,0,0,0-.61-1.4l2.69-.26,2.69-.44,5.38-.84,2.68-.41c.9-.13,1.79-.25,2.68-.46l5.36-1.14,5.34-1.09c1.75-.38,3.38-.9,5.08-1.33l5-1.34c.83-.22,1.68-.41,2.51-.66l2.46-.83,4.91-1.61,2.46-.79,1.22-.39,1.2-.48q4.79-1.92,9.57-3.73,4.67-2.17,9.31-4.26l1.17-.52,1.13-.6,2.25-1.2,4.52-2.37a200.67,200.67,0,0,0,61.77-52.36c1-1.24,2-2.45,3.09-3.65l1.59-1.78.79-.88.74-.94c2-2.5,4-4.9,6.14-7.28q2.89-3.79,6-7.42c.53-.59,1-1.25,1.45-1.89l1.42-1.9q1.44-1.9,2.91-3.78a201.37,201.37,0,0,0,20-32.41,10.79,10.79,0,0,1,3.7-4.49,14.18,14.18,0,0,1,4.3-2c3-.92,6.11-1.42,8.43-4.09a175.2,175.2,0,0,0,24.59-32.32,120.9,120.9,0,0,0,14.7-41l6.45.27c-.12-1.31-.15-2.57-.19-3.79s-.14-2.41-.14-3.55a35,35,0,0,1,.57-6.31,48.88,48.88,0,0,1,8.35,7.16c.65.67,1.28,1.37,1.91,2.07s1.23,1.43,1.77,2.16c1.11,1.45,2.18,2.94,3.22,4.43,2.07,3,4,6,5.86,8.79a80.5,80.5,0,0,0,4.91,7.4c3.22,4.14,6.42,6.37,10.15,4.47,1.87-.95,3.88-2.94,6.12-6.27s4.42-8,6.88-14.42h.07c.54,2.91,1.11,5.54,1.7,8.07,0,.32,0,.59,0,.88a2.4,2.4,0,0,1,.24,0c.2.78.39,1.55.57,2.3s.33,1.48.48,2.19c.33,1.43.68,2.81,1,4.13a66.84,66.84,0,0,0,2.53,7.44c1,2.34,1.93,4.53,3,6.7a70.43,70.43,0,0,0,3.84,6.48l.94-6.13.47-3.07c.16-1,.22-2.06.34-3.09.42-4.11.85-8.24,1.27-12.36,2.84,1.8,5.75,3.1,8.84,2.5.49.78,1,1.51,1.47,2.39-.38,3.78-.71,7-.71,7a21.45,21.45,0,0,0,4.66,3.37,45.15,45.15,0,0,1,1.09,4.59q.47,2.36.87,4.83c.54,3.28,1,6.69,1.45,10.1.25,3.4.51,6.79.75,10,.13,1.65.25,3.27.37,4.84s.27,3.12.32,4.58c.29,5.87.79,10.9,1.86,14.18s2.66,4.8,5.32,3.64c2.91-2.11,4.53-7.8,5.68-15.43.51-3.83.69-8.19,1-12.8.11-2.32.27-4.69.32-7.13s0-4.94.06-7.48a21.65,21.65,0,0,0,2.73-3.66c-.92,13.21,2.73,13.94,6.67,13.26,2-.34,4-1,5.47-.6s2.53,2,2.2,6.17q-.83,4.06-1.57,8.15l-.73,4.09c-.23,1.37-.45,2.74-.77,4.08l-3.4,16.3q-2,8.08-4.17,16.15c-.66,2.7-1.63,5.31-2.49,8s-1.8,5.26-2.75,7.87a428.46,428.46,0,0,1-27.91,59.43l-4,6.9-2,3.44c-.65,1.16-1.41,2.24-2.1,3.36l-8.49,13.31q-4.52,6.45-9,12.88c-1.45,2.17-3.1,4.2-4.67,6.28l-4.75,6.23a459.71,459.71,0,0,1-42.09,47l-11.79,11c-4,3.59-8.23,7.07-12.39,10.67l-3.15,2.68c-1.09.84-2.17,1.7-3.26,2.55-2.18,1.71-4.38,3.42-6.57,5.15l-3.32,2.59-1.66,1.3-1.72,1.23q-3.44,2.48-6.92,5l-4.92,3.48c-.83.57-1.64,1.15-2.48,1.71l-2.53,1.6c-4.69,3-9.36,5.87-14.06,8.69q-7.2,4-14.41,7.76c-2.38,1.32-4.85,2.41-7.31,3.56l-7.37,3.36-3.69,1.66c-1.23.56-2.47,1.1-3.73,1.57l-7.53,2.89-7.55,2.83-1.89.7-1.92.6-3.85,1.2-7.7,2.35-3.86,1.15-1.93.57-2,.48q-7.83,1.9-15.72,3.68l-2,.44-2,.35-4,.68-8,1.33c2.43-2,5-3.92,7.58-5.8l-12.78,2.11-1.6.26-1.59.2-3.19.4-6.37.81c-8.46,1.27-17,1.91-25.53,2.88-1.07.11-2.13.26-3.2.35l-3.21.23-6.42.51-6.42.57-3.21.3-3.22.18q-6.45.38-12.92.88l-3.23.27-3.25.14-6.5.35-8,.51c-1.34.1-2.68.13-4,.15l-4,.07-8.06.14c-2.68,0-5.38.11-8.07,0l-16.21-.55c-5.4-.41-10.82-.88-16.26-1.34a373.06,373.06,0,0,1-65.11-12.63l-8.07-2.47-4.05-1.26c-.67-.21-1.35-.41-2-.64l-2-.72q-8-2.9-16-5.91-7.87-3.35-15.79-6.82l-2-.88c-.65-.3-1.29-.63-1.94-1l-3.87-1.93-7.77-3.91a337.45,337.45,0,0,1-58.89-39.23,429.5,429.5,0,0,1-95.73-114.3A478.62,478.62,0,0,1,480.17,966l-3.27-8.84-1.63-4.43c-.55-1.49-1.11-3-1.57-4.46q-2.86-9-5.76-18c-3.44-12.16-6.88-24.3-9.53-37.23l2.08,7.78c.71,2.57,1.33,5.2,2.17,7.67l4.74,15c1.47,5,3.4,9.92,5.14,14.86l2.64,7.4,1.32,3.69L478,953l5.83,14.64c.91,2.46,2.07,4.85,3.1,7.27l3.18,7.26q1.56,3.63,3.14,7.26l3.42,7.19,3.4,7.21c1.15,2.4,2.18,4.84,3.45,7.2,4,8.71,7.89,17.47,12.57,25.79l3.39,6.26,1.71,3.12c.6,1,1.23,2,1.84,3q3.72,6,7.49,11.92-3.54-6.33-7.15-12.53c-.59-1-1.22-2.06-1.78-3.11l-1.67-3.16q-1.7-3.13-3.37-6.27c-4.68-8.26-8.7-16.73-13-25-1-2.08-1.81-4.23-2.68-6.37l-2.57-6.41-2.55-6.43c-.42-1.07-.87-2.13-1.25-3.22l-1.13-3.25-4.5-13-1.12-3.24c-.36-1.09-.66-2.18-1-3.27-.66-2.19-1.31-4.37-2-6.54s-1.31-4.35-2-6.52l-1-3.25-.5-1.62-.42-1.64-3.44-13q-.89-3.22-1.75-6.44c-.51-2.16-1-4.3-1.52-6.44q-1.52-6.42-3.11-12.75c-.26-1.06-.53-2.11-.79-3.16l-.69-3.23q-.7-3.21-1.4-6.41t-1.46-6.36l-.75-3.16-.38-1.57-.31-1.59q-1.26-6.31-2.65-12.53-.72-3.12-1.43-6.19c-.46-2.05-.83-4.11-1.27-6.15q-1.28-6.12-2.72-12.13c-.24-1-.49-2-.73-3s-.43-2-.65-3c-.43-2-.88-4-1.34-5.93q-1.38-5.89-3-11.67c-1-3.85-1.92-7.66-3-11.43,2.15-6.32,4.22-6.16,4.67-12.31,1.78-21.65,5.83-43,10-63.44,1.14-5.1,2.23-10.16,3.23-15.2.46-2.53,1-5,1.6-7.48s1.08-4.94,1.58-7.41,1-4.92,1.4-7.38,1-4.84,1.44-7.27q1.39-7.23,2.33-14.45c-2.07-.78,5.26-18.3-1.14-14.14l2.46-6.83.63-1.72.71-1.7c.47-1.14.95-2.28,1.43-3.42,1.92-4.57,3.92-9.21,6-13.88s4.47-9.21,6.75-13.85c1.16-2.31,2.25-4.68,3.5-7l3.73-6.84c1.25-2.29,2.5-4.57,3.74-6.86l1.87-3.42c.64-1.14,1.32-2.24,2-3.36,2.64-4.47,5.26-8.93,7.86-13.34,1.26-2.24,2.67-4.36,4-6.51s2.68-4.31,4-6.43l3.91-6.39c1.28-2.12,2.67-4.14,4-6.2q3.56-5.22,6.77-10.74l1.61-2.77,1.66-2.73q1.65-2.76,3.25-5.58c2.14-3.75,4.17-7.63,6.26-11.51s4.28-7.7,6.4-11.64l4.31-5.12L561.4,502l1.13-1.24,2.26-2.46,9.09-9.84,2.29-2.46c.76-.81,1.57-1.58,2.36-2.37l4.78-4.72c3.2-3.14,6.39-6.31,9.64-9.4l10.06-9,5.07-4.49c.83-.75,1.7-1.48,2.58-2.18l2.62-2.14c7-5.68,14-11.47,21.46-16.71,3.67-2.67,7.36-5.36,11.08-8l11.45-7.54c7.61-5.14,15.61-9.63,23.58-14.3,4-2.39,8.08-4.46,12.18-6.61l12.38-6.39c4.19-2,8.43-3.91,12.67-5.86l6.39-2.89,3.21-1.44,3.25-1.31L744,375.47c2.19-.85,4.38-1.74,6.59-2.55l6.68-2.29,13.46-4.52c2.25-.79,4.53-1.41,6.81-2.06l6.85-1.95c4.59-1.27,9.18-2.62,13.81-3.78l14-3.21,7.06-1.57,1.77-.38,1.78-.33,3.57-.63,14.38-2.48c4.81-.89,9.68-1.38,14.55-2s9.78-1.17,14.7-1.7l14.86-1,7.48-.48q1.88-.14,3.75-.15l3.76-.08L915,344l3.8,0,3.79.11,7.62.24,7.65.28c2.55.11,5.11.17,7.66.41l15.38,1.3c2.54.3,5.13.5,7.7.92l7.79,1.23c5.23.88,10.55,1.73,15.87,2.81s10.64,2.39,16,3.67l4,1,2,.49,2,.57,8,2.31,8,2.37c2.65.8,5.31,1.58,7.9,2.52q7.83,2.73,15.54,5.52l3.84,1.4,3.77,1.53,7.46,3.08,7.35,3.08,3.63,1.53,3.54,1.66a545.57,545.57,0,0,0-90.12-20.72,513.68,513.68,0,0,0-92.66-4.66c-29.83-2.16-59.33-1-86.48,3.93-3.38.65-6.74,1.33-10,2l-5,1.08c-1.64.37-3.28.73-4.88,1.2q-9.66,2.7-18.81,5.75c-3.06,1-6,2.24-9,3.42s-5.8,2.45-8.62,3.72-5.59,2.54-8.27,3.95-5.3,2.92-7.85,4.44L736.43,390c-2.39,1.3-4.8,2.48-7.13,3.89l-14,8.11A479.7,479.7,0,0,1,806.41,370a494.08,494.08,0,0,1,96.1-13.42c35.28,2.52,70.83,9.68,104.77,19.17-.74,0-1.41,0-2.17-.1-6.88-1.05-13.73-2.16-20.61-3.07l-20.71-2.2c-6.93-.51-13.88-.88-20.8-1.29-3.45-.25-6.93-.22-10.4-.29l-10.41-.13a355.63,355.63,0,0,0-75.72-1q-9.06,1.14-17.83,2.55l-4.36.72c-1.45.24-2.87.6-4.29.9-2.85.64-5.66,1.3-8.45,2A208.11,208.11,0,0,0,780,384.23c-2.47.95-4.88,2.16-7.26,3.3s-4.69,2.34-6.93,3.55c-9.64,4.39-19,9.55-28.29,14.31L751,400c2.26-.88,4.51-1.81,6.79-2.63l6.88-2.35,13.81-4.66c4.64-1.39,9.3-2.7,14-4,9.3-2.82,18.79-4.8,28.26-7l3.56-.81,3.59-.67,7.18-1.31,7.19-1.3c2.4-.41,4.8-.9,7.22-1.19l18-2.36c3-.44,6-.62,9.07-.89l9.09-.75c3-.22,6.08-.52,9.12-.66l9.13-.33,9.14-.3c1.53,0,3.06-.13,4.58-.1l4.57.05a451,451,0,0,1,45.46,7.76c-1.69.2-3.48.39-5,.68-3.4-.07-8.55,1.18-13.93,3.14a65.79,65.79,0,0,0-15.54,8c-9.09,6.49-13.68,14-4.81,18.16a527.18,527.18,0,0,1,74.92,13.34A465.35,465.35,0,0,1,1074.05,444l2,.84,1.92.89,3.8,1.78,7.39,3.47c2.39,1.16,4.8,2.21,7,3.41l6.58,3.46,6.22,3.31c2,1.09,4,2.06,5.79,3.17l10.09,6,4.35,2.64,2,1.21,1.81,1.22c2.33,1.57,4.31,2.93,5.91,4.06,3.2,2.26,4.86,3.59,4.7,3.8,0,1.33-2.23,1.08-6-.32s-9.17-4-15.86-7c-3.32-1.52-6.9-3.21-10.68-5-1.87-.94-3.88-1.76-5.9-2.66l-6.19-2.73c-8.31-3.86-17.5-7.35-26.52-11-4.56-1.73-9.19-3.29-13.68-4.9l-6.68-2.35-6.6-2-12.4-3.73c-4-1.06-7.71-2-11.12-2.81s-6.52-1.58-9.23-2.2-5.08-.94-7-1.24c-3.74-.6-5.6-.73-5-.26l6.13,2.63L1010,439c1,.42,2,.86,3,1.35l12,5.56c-4.23-.61-8.41-1.17-12.47-1.65-2-.27-4.06-.4-6.06-.51s-4-.2-5.89-.26c-2.19-.4-4.43-.88-6.72-1.42l-3.47-.84-3.54-.77-14.21-3.24c-1.15-.28-2.31-.49-3.47-.67l-3.4-.54c-2.23-.34-4.4-.61-6.46-.81-4.12-.36-7.81-.53-10.89.15-5.3.81-10.59,1.37-15.88,1.72-1.32.06-2.66.21-4,.33l-4,.33q-4,.29-8,.46c-5.35.13-10.76.59-16.19.81l-8.17.32c-2.73.15-5.47.39-8.22.58l-8.26.57c-1.38.1-2.76.17-4.14.3l-4.15.48-8.3,1-4.16.54c-1.38.19-2.77.35-4.15.64-5.52,1-11,2.18-16.5,3.46-1.37.29-2.73.71-4.08,1.11l-4,1.25q-4.05,1.27-8,2.69c-1.65.67-3.33,1.3-5,2l-5,2.32-10.26,4.83-2.59,1.25-2.58,1.38-5.18,2.81c-3.45,1.91-6.95,3.76-10.41,5.79l-10.3,6.41L761.7,482l-5,3.52-10,7.07c-3.27,2.46-6.46,5-9.64,7.55.84,2-2.54,4-5.29,5.75s-4.79,3.52-1.55,4.35l-9.91,4.83-2.5,1.23c-.82.42-1.62.91-2.44,1.36l-4.83,2.77-4.75,2.81c-1.55,1-3.14,1.85-4.59,2.92-2.95,2.07-5.79,4.15-8.45,6.25-1.33,1-2.63,2.09-3.86,3.15s-2.35,2.22-3.45,3.33a69.65,69.65,0,0,0-5.79,6.66c-.84,1.1-1.6,2.2-2.28,3.29a29.8,29.8,0,0,0-1.71,3.38,23.18,23.18,0,0,0-1.85,6.6c-.47.5-.95,1-1.41,1.5a16.53,16.53,0,0,0-2.49,2.48,28.37,28.37,0,0,0-2.58,3.57q-3.45,2.63-6.69,5.26c-1.07.89-2.13,1.78-3.19,2.65s-2.07,1.77-3,2.73c-3.86,3.76-7.53,7.48-10.87,11.32s-6.26,7.91-9.13,11.86-5.24,8.23-7.68,12.33c-9.41,16.73-16,34.24-22.74,53.33-6.27,12.17-11.73,24.89-17.61,37.81l.71-1.65c.27-.55.57-1.11.87-1.68l1.91-3.52c1.34-2.41,2.76-4.94,4.11-7.49s2.89-5,4.07-7.49a40.72,40.72,0,0,0,2.82-7.21c1.06-2.94,2.12-5.85,3.12-8.77q1.47-3,2.91-6L610,654c2.09-3.87,4-7.88,6.26-11.62l3.25-5.73,1.61-2.88.8-1.44.87-1.4q3.46-5.57,6.88-11.2a347.31,347.31,0,0,1,31.56-42.14c1.36-2.79,3.6-7.32,6-11.25,1-.8,2.07-1.51,3.14-2.23s2.15-1.42,3.24-2.11a21.49,21.49,0,0,1,.1-3.21c2.94-3.18,6-6.46,9.26-9.41l5-4.55,2.52-2.27c.84-.76,1.68-1.53,2.57-2.22l10.65-8.51c1.76-1.46,3.64-2.71,5.48-4l5.54-3.94c14.83-10.29,29.91-19.42,43.16-27.4,12.78-6.78,26.65-11.8,40.89-16,3.59-1,7.22-1.8,10.85-2.67l5.46-1.25c.91-.21,1.82-.43,2.74-.61l2.76-.47q5.55-.93,11.11-1.79l2.79-.43c.92-.15,1.85-.28,2.79-.36l5.62-.54,11.24-1c3.76-.16,7.53-.26,11.29-.38,7.52-.39,15,.05,22.53.21l2.81.09,2.8.22,5.59.45,5.58.45c1.85.16,3.71.25,5.56.53l11,1.42c1.83.25,3.67.44,5.49.73l5.44,1-5.51-.16c-1.83,0-3.68.06-5.51.09l-10.93.28c-1.81,0-3.63.18-5.44.32l-5.41.43-5.38.44c-1.78.16-3.57.26-5.35.54l-10.61,1.45-5.25.73-5.22,1-10.33,2c-1.71.3-3.41.74-5.1,1.17l-5.06,1.28c8.44-2,16.9-3,25.29-4.41l12.57-1.39c2.09-.21,4.18-.5,6.27-.65l6.24-.38a374.71,374.71,0,0,1,49.47-.09l14.59,3.12,15.11,3.86c5,1.43,9.94,3,14.92,4.54q-6.75-2.82-13.52-5.49-6.86-2.34-13.75-4.58l14.64,1.8,14.52,2.44c1.21.22,2.43.38,3.63.64l3.59.77,7.2,1.52c2.39.53,4.82,1,7.19,1.57l7.11,1.82a333.49,333.49,0,0,1,140,85.28,328.88,328.88,0,0,1,83.51,144.85,100.93,100.93,0,0,1-9.66-4.74c-8.75-24.92-20-49-33.91-69.91s-30.48-38.51-48.56-50.46c2.36,2.82,4.68,5.5,7,8.07l3.39,3.78,3.18,3.79c4.19,5,8.44,9.57,12.24,14.48l5.87,7.27c1,1.21,1.91,2.49,2.83,3.78l2.78,3.9c1.86,2.63,3.73,5.32,5.61,8.13s3.51,5.86,5.29,9c-1.09.57-2.53,1.65-4.36,0a249.67,249.67,0,0,1,16.15,24.64c2.45,4.53,4.89,9.17,7.26,13.88s4.24,9.65,6.22,14.5c-3.78-2.23-7.6-4.58-11.41-7l-2.86-1.78-1.43-.89-1.49-.86-5.95-3.41a45.88,45.88,0,0,1-5.61-6.77l-1.33-2-1.41-2q-1.41-2.06-2.8-4.25c-.92-1.47-1.85-3-2.81-4.49l-1.41-2.31c-.47-.77-1-1.55-1.49-2.3-2.09-3-4.23-6.13-6.49-9.14l-1.6-2.56-.79-1.28-.86-1.24c-1.13-1.66-2.27-3.31-3.4-5l-3.37-5-1.67-2.47c-.56-.81-1.18-1.59-1.77-2.39l-7.07-9.53c-1.13-1.61-2.4-3.11-3.64-4.64l-3.7-4.57-3.68-4.57c-1.21-1.53-2.58-2.93-3.85-4.41l-7.73-8.74q-4-4.19-8.1-8.34c-1.36-1.38-2.66-2.81-4.07-4.14l-4.24-4a283,283,0,0,0-76.23-52.09l-9.06-5c-1.52-.82-3-1.72-4.55-2.48l-4.65-2.29-9.31-4.57-9.51-4.12-4.75-2.07c-1.6-.65-3.23-1.22-4.84-1.84l-9.69-3.64c-.81-.32-1.62-.6-2.45-.85l-2.46-.79-4.93-1.57c-3.29-1-6.54-2.2-9.89-3l-10-2.64-2.49-.66c-.84-.21-1.68-.37-2.52-.55l-5-1.06-5-1.06-2.52-.53c-.84-.19-1.69-.35-2.54-.47l-10.16-1.59-5.08-.78-5.1-.53-10.2-1c-.85-.1-1.7-.15-2.55-.19l-2.56-.12-5.1-.25-5.11-.24-2.54-.12h-2.55l2.53-.28,2.53-.15,5.06-.3c3.36-.19,6.73-.46,10.08-.59l10-.12,5-.07c1.67-.05,3.31.09,5,.12,6.62.26,13.26.31,19.78,1l9.82.77,9.72,1.21,4.86.6,2.43.3,2.4.41,9.61,1.64,4.81.81,4.74,1,9.5,2,2.38.51c.79.18,1.56.4,2.35.6l4.68,1.22,9.4,2.44c3.1.9,6.16,1.88,9.26,2.82l4.65,1.41C1039.71,512.73,1041.29,513.15,1042.79,513.72Zm120.83,421.91c-.32,2.27-.64,4.58-1,6.91s-.8,4.65-1.17,7c.72-.48,1.44-.94,2.2-1.35a15.27,15.27,0,0,0,1.15-6.28A23.38,23.38,0,0,0,1163.62,935.63Zm-51.87,86.68q2-1.95,4-4l2-2.13,1.9-2.29c2.51-3.11,5.11-6.33,7.55-9.79s4.66-7.19,7-11c2.15-3.87,4.22-7.88,6.33-11.92,8-16.43,14.13-34.75,18.58-52.84a5.07,5.07,0,0,0-1.45-.86c-1.57,3.55-3,7.26-4.46,11.07q-2.43,5.61-4.68,11.57c-.35,1-.77,2-1.21,3l-1.26,3c-.84,2-1.66,4-2.48,6.05-.42,1-.77,2.06-1.25,3l-1.37,3c-.9,2-1.81,4.08-2.71,6.14C1130.92,990.71,1122.12,1007.37,1111.75,1022.31Zm-111.94,35.08c.28.12.57.21.86.33-.17-.29-.36-.56-.51-.85A4.3,4.3,0,0,1,999.81,1057.39ZM572.41,931.2c10.56,16.44,20.43,34.69,32,52.92s24.77,36.39,40.6,51.94a36.49,36.49,0,0,0,3.46,3.58c.62.56,1.25,1.11,1.91,1.64s1.4,1,2.12,1.47c2.89,1.91,6,3.69,9.16,5.54,1.54,1,3.27,1.77,4.92,2.7s3.33,1.89,5,2.93,3.23,2.22,4.9,3.38a50.75,50.75,0,0,1,4.93,3.83c2.19,1.55,4.24,3,6.31,4.34s4.14,2.41,6.11,3.5,3.86,2.14,5.72,3.1l5.64,2.55c3.69,1.63,7.16,3.27,10.87,4.65,1.82.73,3.64,1.48,5.48,2.27s3.65,1.67,5.62,2.43c-1.47-1.6-2.8-3.38-4.15-5.1l-4-5.14a93.29,93.29,0,0,0,8.48,5.66c2.89,1.47,5.74,2.74,8.53,3.88,1.41.55,2.77,1.12,4.18,1.57s2.82.83,4.22,1.22l8.26,2.22c2.8.58,5.57,1.17,8.33,1.86,1.38.34,2.76.71,4.14,1.12s2.82.7,4.24,1.11a73.25,73.25,0,0,1,8.62,3,77.81,77.81,0,0,1,9.2,4c.33-1,1.78-2.24,3.58-3a13.37,13.37,0,0,1,1.42-.53,11.12,11.12,0,0,1,1.51-.38,6.83,6.83,0,0,1,3,.1c2.44.41,4.84.92,7.22,1.5,1.17.33,2.38.54,3.58.8s2.38.52,3.56.8c2.37.56,4.7,1.18,7,1.8l7,1.46c2.3.47,4.56,1,6.82,1.34s4.51.53,6.71.71a58.77,58.77,0,0,0,6.46.22,52.25,52.25,0,0,0,6.23-.74c2.48-.08,5,0,7.42-.12s5-.25,7.39-.34l3.65-.13,1.81-.06,1.81-.17,7.13-.66a109.31,109.31,0,0,0,13.59-2.08l3.21-.69,1.57-.36,1.55-.48q3.08-1,5.93-2.07a9.36,9.36,0,0,0,3.49-1.41c.67-.38,1.37-.83,2.1-1.32s1.49-1.11,2.27-1.7c3.13-2.4,6.62-5.12,10.25-6.73,4.42-1.31,8.76-2.61,13.15-3.76,4.29-1.46,8.59-2.84,12.86-4.23a20.37,20.37,0,0,1-1.53-1.37c-3.54.82-7.08,1.76-10.58,2.92-.87.32-1.77.55-2.66.8s-1.78.53-2.66.82c-1.77.58-3.54,1.23-5.29,2l-2,.82-1,.42-1,.36-4.27,1.44c-2.87,1-5.8,2-8.78,2.92-6,1.58-12.1,3.52-18.3,4.64l-4.66,1-2.34.49c-.78.16-1.55.24-2.33.36l-9.3,1.34c-.77.1-1.54.23-2.31.31l-2.29.18-4.55.35c-3,.19-6,.54-8.91.46-3.63-.06-7.26,0-10.89,0-3.59-.2-7.18-.35-10.78-.47-1.81,0-3.58-.21-5.36-.37l-5.34-.43-2.67-.19c-.9-.06-1.79-.11-2.67-.25l-5.28-.65a297.6,297.6,0,0,1-41.63-7.71,309.22,309.22,0,0,1-40.1-13.39,292.77,292.77,0,0,1-38-19.67c-2.62-1.63-5.37-3.15-8.18-4.63-1.44-.71-2.79-1.52-4.16-2.33l-4.15-2.38a125.51,125.51,0,0,1-16.12-10.6,34.87,34.87,0,0,1-2.93-2.19l-2.87-2.34q-2.88-2.37-5.76-4.87c-3.7-3.45-7.25-7.17-10.88-10.88-3.37-3.92-6.77-7.87-10.09-11.87s-6.3-8.25-9.37-12.28c-2.9-4.18-5.88-8.22-8.8-12.16-2.74-4-5.54-7.91-8.41-11.54s-5.41-7.25-8.28-10.44-5.62-6.19-8.56-8.79c-1.8-1.81-3.48-4.9-5.42-7.92S575.17,932.83,572.41,931.2ZM468.59,893.59q1.73,5.7,3.46,11.49,1.89,5.61,3.82,11.28c.62,1.89,1.25,3.77,1.88,5.67s1.21,3.78,1.95,5.66q2.07,5.63,4.17,11.29c5.48,15.09,11.78,30,18.24,44.65.76,1.85,1.64,3.65,2.51,5.46l2.58,5.41c1.7,3.6,3.41,7.19,5.1,10.76l5.43,10.52c1.81,3.48,3.47,7,5.44,10.37l5.61,10.14c.93,1.67,1.81,3.37,2.77,5l2.92,4.89,5.72,9.69c.47.8.93,1.61,1.41,2.4s1,1.56,1.49,2.34c1,1.55,2,3.1,2.95,4.64,1.65,2.44,3.53,5.12,5.61,8,1,1.47,2.22,2.88,3.42,4.38l3.77,4.58,4,4.79,2.11,2.46c.72.82,1.51,1.61,2.27,2.42,3.08,3.23,6.3,6.54,9.63,9.88.84.83,1.65,1.69,2.53,2.49l2.67,2.41,5.43,4.82,5.52,4.78c1.88,1.55,3.86,3,5.79,4.5l5.83,4.37,2.91,2.14,1.46,1,1.5,1c4,2.61,8,5.11,11.88,7.46l2.9,1.73c1,.54,2,1,3,1.56,2,1,3.89,2,5.78,2.92s3.76,1.81,5.58,2.65l2.71,1.21c.89.38,1.81.71,2.7,1.05,3.57,1.32,6.94,2.44,10.08,3.32a50.1,50.1,0,0,0,8.71,1.82c10.73,1.16,16.68-1.74,15.69-10a38.42,38.42,0,0,1-7,.4c-1.25,0-2.54-.13-3.86-.27s-2.65-.41-4-.68a88,88,0,0,1-8.65-2.33,74.22,74.22,0,0,1-9.34-3.56q-4.75-2.19-9.83-4.89l-2.55-1.38-1.29-.72-1.26-.77q-2.52-1.58-5.1-3.27t-5.22-3.49c-1.74-1.23-3.58-2.39-5.27-3.77q-5.18-4-10.52-8.47a280.77,280.77,0,0,1-40.27-43.29,369.5,369.5,0,0,1-32.46-52.78l-6.56-13.56c-.56-1.11-1-2.24-1.53-3.38l-1.44-3.38q-1.44-3.37-2.87-6.69l-2.82-6.57c-.84-2.2-1.66-4.38-2.48-6.54L510.31,961q-2.12-6.24-4.18-12.09c-.7-1.95-1.38-3.87-2.06-5.75l-.51-1.4c-.15-.47-.3-.94-.44-1.41-.3-.93-.6-1.85-.89-2.76q-1.78-5.48-3.53-10.46l-1.76-4.84c-.53-1.58-1.06-3.11-1.56-4.6a127.87,127.87,0,0,0-6.28-15.38c-2-4.31-4-7.73-6.15-10C478.67,887.71,473.92,887.54,468.59,893.59ZM656.12,435.33l-4.21,3.05-4.08,3.2L639.69,448c-5.48,4.13-10.68,8.69-16.1,13.08l-4.07,3.31L617.46,466l-2,1.74q-4,3.47-8.2,6.95l-4.22,3.5-2.14,1.75c-.72.58-1.4,1.21-2.11,1.82q-4.23,3.67-8.66,7.4A443.06,443.06,0,0,1,656.12,435.33ZM547.49,675l1.56-6.48c.28-1.07.52-2.17.84-3.24l1-3.19q2-6.39,4.15-12.83c1.55-4.23,3.28-8.42,5-12.65l1.31-3.16c.44-1.06.88-2.12,1.39-3.14,1-2.06,2-4.13,3-6.19s2-4.13,3-6.2c.52-1,1-2.08,1.57-3.1l1.69-3q3.4-6,6.93-12.08c2.46-3.94,5-7.82,7.61-11.74s5.34-7.68,8.12-11.46c5.44-7.66,11.58-14.77,17.59-22,6.35-6.93,12.59-14,19.38-20.55,6.55-6.79,13.65-12.92,20.54-19.32l10.72-9.05,2.68-2.28,1.34-1.13,1.38-1.07,5.5-4.31c2.82-2.2,5.7-4.37,8.66-6.47s6.09-3.93,9.21-5.83l4.7-2.83,2.38-1.4,2.44-1.27q4.89-2.55,9.86-5l5-2.43c1.69-.75,3.4-1.47,5.1-2.19L731.33,465c3.39-1.48,6.91-2.61,10.37-3.89l10.37-3.75c3.46-1.19,7-2.22,10.42-3.37l10.33-3.38c3.46-1,6.89-2,10.3-3.12l5.09-1.63c1.68-.56,3.36-1.15,5-1.62q5.07-1.5,10-3.16c1.66-.55,3.3-1.12,4.94-1.7l2.46-.89c.81-.3,1.64-.54,2.45-.82,3.28-1.09,6.51-2.24,9.72-3.48q2.4-.93,4.77-1.92c1.59-.65,3.16-1.38,4.74-2-.26-2.13-.51-4.27-.77-6.41-1.88.87-3.72,1.94-5.57,2.92-5.16.45-10.1.74-14.89.94-2.41.05-4.74.32-7,.45l-6.87.46a253.11,253.11,0,0,0-26.51,2.73l2.84-1.31-5.07,1.66c-1.47.21-2.92.53-4.37.87s-2.92.68-4.39,1.05c-2.94.75-5.91,1.58-8.92,2.52-1.51.47-3,.95-4.55,1.5s-3,1.22-4.55,1.88q-4.59,2-9.32,4.38l-4.28,2.4c-1.42.82-2.82,1.72-4.23,2.58l-8.48,5.19c-2.09,1-4.2,2-6.27,3.1L703,460.58c-4.08,2.27-8.21,4.45-12.25,6.81-8,4.94-16,9.65-23.58,15.12l-5.73,4-2.85,2c-.95.67-1.85,1.41-2.78,2.11l-10.95,8.56c-.9.72-1.82,1.42-2.7,2.16l-2.62,2.27-5.2,4.55c-3.43,3-6.9,6-10.11,9.29s-6.47,6.41-9.64,9.61-6.07,6.69-9,10l-4.4,5c-1.43,1.7-2.77,3.48-4.14,5.21q-4.1,5.24-8,10.46c-2.5,3.59-4.91,7.2-7.28,10.79l-3.5,5.38c-1.1,1.83-2.16,3.69-3.21,5.53q-3.15,5.52-6.11,11c-1.86,3.73-3.59,7.5-5.29,11.21a251.73,251.73,0,0,0-19.42,53.46l-1.71,6.63L541,668.52l-1.44,6.7c-.24,1.11-.49,2.22-.73,3.34l-.36,1.67-.3,1.69q-1.2,6.8-2.52,13.59c-.21,1.14-.48,2.25-.65,3.41s-.36,2.31-.55,3.46q-.59,3.45-1.18,7c.91-2.5,2.05-5.26,3.28-8.16.31-.73.63-1.46,1-2.2s.7-1.47,1.06-2.21l2.13-4.48c1.4-3,2.74-6,3.87-9A57.32,57.32,0,0,0,547.49,675Z"/><path class="cls-2" d="M954.22,477.3a329.24,329.24,0,0,1,68,13.39c8.93,2.09,17.62,4.9,26.48,7.51,8.66,3,17.53,5.85,26.12,9.39A273.29,273.29,0,0,1,1134,543a328.49,328.49,0,0,1,52,51.1,385.63,385.63,0,0,1,41.26,62.11,458.06,458.06,0,0,1,29.44,67.9,23.7,23.7,0,0,0,9.86-.44,19.5,19.5,0,0,0,8.74-5.22,311.57,311.57,0,0,0-29-78.27,363.36,363.36,0,0,0-47.41-68.76,436.31,436.31,0,0,0-60.4-57,547.05,547.05,0,0,0-69-45.77c-.86-.19-1.73-.43-2.6-.61l-2.25-.52-2.3-.48q-2.31-.49-4.68-1.05-4.71-1.12-9.6-2.48c-3.22-1-6.62-1.73-10-2.66s-6.87-1.89-10.36-2.91l-21.79-5.76-11.35-2.67-5.73-1.37c-1.94-.4-3.89-.76-5.83-1.14l-11.73-2.27c-2-.41-3.94-.64-5.92-.94l-5.94-.84-5.93-.81-3-.39c-1-.12-2-.18-3-.27-4-.33-7.93-.64-11.86-.9-2-.11-3.91-.3-5.87-.33l-5.86,0c-3.89,0-7.73,0-11.52.11s-7.55.54-11.23.89-7.29.74-10.83,1.35c-28.27,5.81-55.28,12.54-81.09,21.63S758.9,484.85,737,500.13l6.5-2.78,3.24-1.39c1.09-.44,2.19-.83,3.29-1.24l13.13-5c4.41-1.52,8.86-2.91,13.27-4.38l3.31-1.09,1.66-.55,1.68-.46,6.7-1.86,6.7-1.86c1.11-.29,2.22-.65,3.35-.89l3.38-.76,13.52-3c4.53-.86,9.08-1.59,13.62-2.39l3.41-.58c1.14-.2,2.27-.4,3.42-.51l6.86-.82,6.87-.8,3.43-.38,3.45-.22,13.8-.83c4.61-.13,9.22-.07,13.84-.09h5.19c.57,0,1.15.05,1.73.08l6.92.39c9.24.35,18.42,1.62,27.62,2.81q6.86,1.23,13.7,2.55l3.43.66,3.39.84Z"/><path class="cls-2" d="M621,808.35l.08-5.54c0-1.85,0-3.71.17-5.55.24-3.71.47-7.43.71-11.15q.67-5.55,1.27-11.18l.15-1.41.23-1.39.47-2.79q.44-2.8.89-5.62c.26-2.65.8-5.22,1.25-7.81s.9-5.16,1.31-7.74q.84-3.82,1.67-7.6c.57-2.53,1-5.1,1.71-7.56s1.29-5,1.93-7.45c.33-1.24.58-2.51,1-3.72s.75-2.44,1.13-3.65c.73-2.46,1.46-4.9,2.18-7.34s1.67-4.79,2.48-7.2a329,329,0,0,1,25.32-56,336.91,336.91,0,0,0-25.47,37.43L636.61,690c-.93,1.65-1.94,3.24-2.76,5-1.71,3.38-3.45,6.73-5.22,10.08l-4.8,10.29-1.21,2.58-1.08,2.63-2.17,5.25c-.59,1.81-1.22,3.59-1.67,5.41s-.83,3.64-1.2,5.45a83.75,83.75,0,0,0-1.69,10.76c-.31,3.59-.58,7.12-.7,10.61,0,3.54.15,7,.3,10.46l.12,2.56c0,.85.18,1.72.26,2.58.21,1.7.41,3.4.61,5.1.43,3.38.76,6.69,1.48,10s1.23,6.56,1.84,9.85C619.49,801.89,620.28,805.13,621,808.35Z"/><path class="cls-2" d="M683.65,619a334.54,334.54,0,0,0-18.75,28.72A321.79,321.79,0,0,1,712.06,600c1-.94,2.2-1.74,3.3-2.6l3.35-2.55,3.34-2.58c1.11-.86,2.21-1.74,3.39-2.51l6.93-4.8,3.46-2.42,3.59-2.23,7.16-4.5c1.18-.79,2.44-1.42,3.66-2.12l3.7-2.07,3.69-2.08c1.24-.69,2.45-1.44,3.73-2L769,563.7c32.67-18.25,70.09-30.25,108.91-35.1a332,332,0,0,1,119.46,7.33q6.74,1.89,13.44,3.89,6.56,2.34,13.09,4.77a310.19,310.19,0,0,0-109.19-33.28,287.94,287.94,0,0,0-111.62,9.13l-6.62,1.94-3.31,1c-1.09.33-2.16.75-3.24,1.13-4.31,1.55-8.61,3.06-12.87,4.63l-12.49,5.33c-2.09.83-4.07,1.92-6.09,2.9l-6,3a262.54,262.54,0,0,0-44,28.68l-9.75,8.34c-3.15,2.87-6.14,5.89-9.16,8.8l-2.25,2.2c-.74.74-1.43,1.54-2.14,2.31-1.4,1.55-2.81,3.09-4.2,4.64l-4.15,4.61-3.86,4.84-3.81,4.81c-.62.81-1.27,1.58-1.86,2.41l-1.75,2.51c-2.3,3.34-4.61,6.63-6.8,10s-4.1,6.85-6.09,10.24c-.48.86-1,1.67-1.45,2.56l-1.34,2.63-2.63,5.22c-.49,1-1,2.11-1.57,3.19-.28.54-.56,1.08-.83,1.62l-.74,1.67c1-1.5,2.13-2.88,3.21-4.31L650.5,643l3.26-4.28,3.47-4.11,3.45-4.13c1.16-1.37,2.26-2.79,3.51-4.08l7.27-7.94c1.17-1.36,2.48-2.58,3.75-3.85l3.8-3.8,3.8-3.83,4-3.61,4-3.64c1.34-1.19,2.61-2.49,4-3.59l8.27-6.9a312.41,312.41,0,0,1,74-44.48C740.19,562.77,708.08,588.32,683.65,619Z"/><path class="cls-2" d="M932.29,476l7.41,1.27,3.68.62c1.22.24,2.43.52,3.65.78l8.7.66c2.89.22,5.79.38,8.65.79-3.35-1.15-6.79-1.92-10.16-2.83-3.68-.3-7.34-.67-11-.92Z"/><path class="cls-2" d="M770.72,431.4l-2.23.35-1.69.56-1.67.63-3.34,1.27-6.7,2.53-6.72,2.54c-2.24.85-4.42,1.87-6.64,2.8l-13.27,5.71-13.06,6.33a563.45,563.45,0,0,0-66.65,48.55,484.92,484.92,0,0,1,62.14-40.75C731.86,450.28,752.39,440.54,770.72,431.4Z"/><path class="cls-2" d="M591.12,465.31c-1.36,1-3,2.37-4.75,3.84l-5.67,4.73-5.65,4.74-2.52,2.13-2.1,1.9c-2.13,3.73-4.24,7.41-6.38,11.14l7.07-6.25,3.56-3.11c1.2-1,2.45-2,3.68-3l6.31-8.09,3.19-4.06C588.93,468,590,466.59,591.12,465.31Z"/><path class="cls-2" d="M448.48,810.16a444.86,444.86,0,0,1,26.24-161.48A454,454,0,0,1,556,508.4l3.92-7.36,4.12-7.25-5.15,4.63c-1.69,1.58-3.31,3.22-5,4.84q-4.92,4.86-9.77,9.79c-1.65,1.62-3.15,3.37-4.7,5.07l-4.6,5.15-4.55,5.18L528.07,531c-.74.88-1.44,1.79-2.16,2.68q-4.29,5.38-8.46,10.81c-1.38,1.82-2.82,3.59-4.11,5.47l-3.9,5.61q-3.85,5.63-7.61,11.28c-2.37,3.85-4.68,7.73-7,11.6-4.67,7.68-8.6,15.74-12.52,23.68-2,3.94-3.68,8.06-5.4,12.1s-3.36,8.11-5,12.16-2.86,8.23-4.21,12.34-2.72,8.15-3.74,12.33-2.12,8.27-3.1,12.38c-.48,2.06-1,4.09-1.39,6.16l-1.11,6.21a194.24,194.24,0,0,0-2.51,23c-.29,4.12-.62,8.2-1.11,12-.28,1.89-.45,3.76-.73,5.52a50,50,0,0,1-1,5,335.79,335.79,0,0,0-7.57,87.91A400.48,400.48,0,0,0,458.41,893a456.49,456.49,0,0,1-9.88-80.48C448.51,811.69,448.5,810.94,448.48,810.16Z"/><path class="cls-3" d="M1067.87,966.81c-8.28,5.69-17.54,5.28-26.85,5.24-16.82-.08-32.89,3.93-48.56,9.73a82.12,82.12,0,0,0-22.74,13.13,217.94,217.94,0,0,0-36.91,37.5c-9.48,12.3-19.46,24.18-30.72,34.88a179.9,179.9,0,0,1-19.37,16.39c-20.9,14.9-43.07,27.5-67.63,35.53a107.81,107.81,0,0,1-41.58,4.92c-21.49-1.51-41.8-7.13-61.4-15.81A138.19,138.19,0,0,1,664.69,1074a231.69,231.69,0,0,1-50.07-88c-11.55-37.83-3.1-71.32,22.24-100.94a120.11,120.11,0,0,1,31.39-25.73,73.25,73.25,0,0,1,29.82-9.82,56.92,56.92,0,0,1,35.34,8.22c11.44,6.81,20.74,15.93,28.71,26.5,11.89,15.76,20,33.37,25.6,52.23.49,1.67,1,3.34,1.65,5.42,5.68.49,11.37,1,17.06,1.44,15.78,1.12,31.55,2.46,47.35,3.21,25.74,1.23,51-1.35,75.58-9.81a97.39,97.39,0,0,0,41.45-27.53c5.87-6.54,11.88-13,18.25-19,20-18.91,43.07-32.36,69.85-39.25,11.13-2.86,22.46-2.65,33.82-2.71,14.69-.06,29.43.19,44.07-.87a225.38,225.38,0,0,0,54.48-10.38c2.42-.79,4.81-1.72,7.17-2.68,25.47-10.41,41-29.17,46.83-56,3.68-17,6.94-34.12,10.61-51.14a124.19,124.19,0,0,1,4.94-17.5,46.66,46.66,0,0,1,6.7-12.05c5.47-7,12.36-8.37,20.56-5a36.64,36.64,0,0,1,13,9.57A66.39,66.39,0,0,1,1318.22,739c4.23,32.06-6.15,58.84-29.4,80.86-11.55,11-24.66,19.78-38.42,27.7-19.18,11-39.58,19.39-60,27.74-18.49,7.57-37.05,14.94-54.52,24.74-14,7.88-27.33,16.69-37,29.93-2.8,3.84-5,8.17-7.34,12.31a4,4,0,0,0-.16,3.18c1.36-.93,2.72-1.88,4.1-2.79,29.47-19.57,59.53-38.15,92.78-50.65,21.66-8.15,43.75-15.17,65.72-22.48,16.82-5.61,33.78-10.76,50.6-16.35,11.15-3.71,21.21-9.59,30.74-16.45,18.2-13.1,24.16-31,20.64-52.57a116.07,116.07,0,0,0-3.74-14.85c-8.22-27.13-18.34-53.46-32.46-78.17-5-8.72-9-18-13.47-27-3.48-7-6.88-14.06-10.5-21a106.55,106.55,0,0,1-9.7-25c-3.72-16-10.07-31-17.27-45.61-2.68-5.45-5.35-10.91-8.32-16.2-10.73-19.1-20.28-38.8-29.51-58.65a280.54,280.54,0,0,0-47.74-70.93C1168.9,411,1152,398.1,1134.21,386.3c-22.32-14.84-46.2-26.64-70.87-36.95a110.56,110.56,0,0,0-26.62-7.75,84.19,84.19,0,0,0-12.41-.66,14.39,14.39,0,0,0-10.26,4.61A93,93,0,0,0,1004,357c-7,9.92-13.58,20.14-20.39,30.2-5,7.42-6.91,15.67-7,24.51,0,4.24,1.82,7,5.68,8.48a33.45,33.45,0,0,0,4.56,1.43c7,1.59,7.55,1.08,10.66-5.12a164.24,164.24,0,0,1,8.45-14.43,27.35,27.35,0,0,1,4.52-4.93c2.47-2.33,5.36-3.74,8.71-2.09s5.61,4.6,5.35,8.4a19,19,0,0,1-2.47,8.07c-4.61,7.77-11.36,12.91-20.34,14.72a15.66,15.66,0,0,0-6.71,3.3c-2.87,2.22-6.24,3.79-9.46,5.54-4.62,2.52-9.43,4.72-13.9,7.49-4.77,2.95-4.71,6.34-.18,9.74a18.39,18.39,0,0,0,11.7,3.62A63.9,63.9,0,0,0,996,454.4c10.26-2.41,20.39-5.37,30.64-7.81,17.55-4.17,35.21-3.46,52.87-.7a166.92,166.92,0,0,1,30.2,7.42c29.3,10.43,49.16,30.78,61.71,58.77a144.87,144.87,0,0,1,5.8,14.71c5.33,16.56,10.79,33.07,14.62,50.11a199.31,199.31,0,0,0,8.81,29.34c7.36,18.68,7.58,37.52,4.27,57-4.09,24.09-7.29,48.33-10.74,72.53-.58,4.06-.47,8.22-.67,12.25,2.65,1.28,4.82,2.29,7,3.37a56.89,56.89,0,0,1,16.94,13.16,26.26,26.26,0,0,1,4.05,5.89c2.54,5.32.19,9.61-5.64,10.48a16.14,16.14,0,0,1-4.75-.16c-12.24-1.85-18.48-9.79-21.24-21.16-.56-2.32-.87-4.7-1.42-7.69-6-1.36-12.14-3.16-18.41-4.08-26.33-3.83-52.8-5.54-79.34-2.89-35.89,3.58-69.08,15.4-99.69,34.4-10,6.22-20.57,10.29-32.5,9.87-10.54-.37-21.07-1-31.6-1.42-19.8-.84-39.59-2-59.39-2.37-27.33-.49-54.67-.35-82-.46a20.1,20.1,0,0,0-4.72.45c-3.48.85-3.45.93-4.65-2.38a6.85,6.85,0,0,0-.35-.89c-.06-.13-.23-.2-.73-.61a125.78,125.78,0,0,0-29.66.72c-12.63,2-25.31,3.59-37.91,5.7-9.6,1.61-19.17,3.5-28.64,5.76a93.6,93.6,0,0,0-16.28,5.56c-18.87,8.42-35.77,19.74-49.84,35.06a45.22,45.22,0,0,0-9.43,15.43,21.81,21.81,0,0,0-1.12,10.72c.5,3.68-.14,7.64-.91,11.34a55.7,55.7,0,0,1-11.46,23.49c-4.88,6.12-9.69,12.32-14.85,18.2a10.08,10.08,0,0,0-2.41,10.39c5.2,18.94,10.16,38,15.2,56.93a305.07,305.07,0,0,0,18.11,49.44q30.84,66.79,62,133.43c4.4,9.41,9.41,18.52,14,27.83a84.11,84.11,0,0,1,4.92,11.43c2.11,6.55.11,10.15-6.49,11.86a54.11,54.11,0,0,1-10.86,1.71q-29,1.34-58,2.32c-8.46.3-16.94.58-25.4.35-7.33-.2-14.64-1.13-22-1.75a9.53,9.53,0,0,1-1.41-.29c-1.47-.37-2.94-1-2.8-2.74.17-2,1.71-2.56,3.5-2.41,1.59.12,3.18.31,4.76.55,11.11,1.69,22.31,1.54,33.49,1.32,16.46-.32,32.92-.72,49.37-1.35,8-.31,16-1,23.88-1.91,8.09-1,8.68-2.29,5.51-9.84-.87-2.06-1.79-4.11-2.84-6.08-14-26.57-26.44-53.93-38.93-81.25-10.1-22.08-20.11-44.22-30.83-66-16.26-33.05-26.78-68-35.72-103.53-1.48-5.88-2.95-11.77-4.45-17.65-.07-.29-.34-.52-.74-1.11a20.72,20.72,0,0,0-2,2.35,75.33,75.33,0,0,0-10.08,23.7c-.53,2.33-1.24,4.63-1.73,7-4.36,20.92-21.59,34.25-41.29,36.57-12.95,1.52-25.85.67-38.36-3.61a65.89,65.89,0,0,1-25.6-15.56c-8.82-8.79-17.61-17.7-25.51-27.3-15-18.24-22.29-39.74-23.63-63.14-.87-15.23,3.62-29.41,11-42.63,7.79-14,19-24.73,32.76-32.89,10-5.94,19.88-12.18,29.64-18.56,3.57-2.33,6.64-5.44,10.42-8.6-1.74-1.21-3-2.12-4.24-3a68.8,68.8,0,0,1-20.8-20.91c-6.58-10.36-7.95-21.82-7-33.65,1.06-13.81,4.2-27.18,10.43-39.62a124.1,124.1,0,0,1,9-14.66,29.15,29.15,0,0,1,6.05-6.1c6.31-4.93,13.26-5.07,19.23.26a49.12,49.12,0,0,1,9.34,11.41c6.64,11.17,10,23.51,10.8,36.43a136.49,136.49,0,0,1-.14,18.2,61.08,61.08,0,0,1-9.82,29.23c-3.72,5.77-7.65,11.41-11.49,17.1l-1.72,2.55a15.08,15.08,0,0,0,9.61.92c17.59-3.71,31.06-13.29,37.58-30.16,10-26,6.43-51.3-7.34-75.08-9.12-15.74-22.18-28-37.26-38.07-4.91-3.29-9.9-6.47-14.92-9.59-14.63-9.1-26.25-21.39-36.45-35-7.39-9.87-12.08-21.1-12.81-33.58a76.65,76.65,0,0,1,3.72-27.42C438.85,517,444,502.34,452.08,489c3.38-5.61,4.52-11.85,5.82-18.11a94.64,94.64,0,0,1,4.1-14.67,163.46,163.46,0,0,1,7.66-16.51c5.54-10.64,8.42-22,10.28-33.76,3.3-20.9,2.24-41.73-.54-62.56-1.41-10.61-3.6-21.21-2.41-31.95,3-26.75,16-46.86,40.44-58.78a105.51,105.51,0,0,1,33.83-10.09,47.3,47.3,0,0,1,17.14.94,28.48,28.48,0,0,1,17.76,12.37c1.55-.75,2.81-1.35,4.06-2,19-9.51,38.89-13.91,60.25-12.33,36.75,2.71,71,13.72,103.91,29.76,7.47,3.65,14.77,7.61,22.15,11.44,18,9.32,34.19,21.23,49.77,34.05,19.91,16.38,32.27,37.29,36.81,62.69a59.16,59.16,0,0,1,.91,12.39c-.29,8.13-4,14.68-10.45,19.63-.63.48-1.23,1-1.83,1.52-.1.09-.13.26-.2.39,14.19,10.51,19.62,26.06,23.39,42.19,2.29,9.76,3.05,19.88,4.42,29.84,1.82,13.29,3.44,26.62,5.4,39.89,1.5,10.19,1.3,20.4,1,30.63-.16,6.06-1.24,12.16-.85,18.17.91,13.79-5.21,25.29-10.93,37-6.86,14.06-13.62,28.09-16.69,43.7-3.44,17.54-7.83,34.88-11.77,52.32-1.89,8.39-5.83,15.88-10.23,23.12A27.42,27.42,0,0,1,820.53,742a61.09,61.09,0,0,1-14.82,3.65c-9.53.8-19.13.76-28.71,1.06-1.1,0-2.21,0-4,0,4.49,11.22,9.57,21.73,14.6,33.1,2.95,0,6.28,0,9.61,0,27.49.19,55,.31,82.48.6,21.42.22,42.8,1.51,64.14,3.29,2.55.21,5.11.24,7.66.43,14.43,1.08,27.08-3.19,39.41-10.81a232.11,232.11,0,0,1,78.16-30.45,245.18,245.18,0,0,1,58.69-3.92c14.85.67,29.7,1.26,44.36,4,5.16.95,10.27,2.17,15.75,3.33a16.74,16.74,0,0,0,.54-2.2c.88-8.25,1.45-16.55,2.64-24.76,3.17-22,6.64-43.91,9.91-65.86a80.93,80.93,0,0,0-3.19-38.76c-5.41-15.87-9.94-32-14.08-48.27A440.89,440.89,0,0,0,1168.41,519c-7-18.35-17.72-34.33-33.68-46.32-13-9.77-27.77-15.68-43.54-19.16-15.19-3.36-30.58-5.53-46.14-4.1-8.55.79-17,2.64-25.43,4.46-8.57,1.86-17,4.45-25.55,6.39a36.45,36.45,0,0,1-19-.29,19.59,19.59,0,0,1-9.31-5.64c-4.55-5.14-4.24-11,1.35-14.9,4.42-3.1,9.34-5.51,14.1-8.1,2.07-1.14,4.3-2,7.37-3.36-3.07-1-5.23-1.65-7.33-2.45-7.47-2.88-10.59-7.62-10.1-15.5.6-9.74,3.09-18.83,8.8-27,6.51-9.29,12.56-18.9,19.08-28.18a104.67,104.67,0,0,1,9.83-11.74c6.05-6.37,13.7-8.42,22.3-7.58a117.11,117.11,0,0,1,33.29,8.61A445.27,445.27,0,0,1,1140.31,384c38.33,25.36,68.19,58.42,89.09,99.13,15.1,29.41,29.58,59.15,44.78,88.52a198.23,198.23,0,0,1,17.4,46.57c1.85,8,5.3,15.37,9,22.66,4.55,9,8.74,18.13,13.23,27.13,4.06,8.15,8.06,16.34,12.54,24.26,15.15,26.75,25.41,55.42,33.55,84.9,3.86,14,3.47,27.78-2.53,41.25a51.07,51.07,0,0,1-15.75,20.19c-10.72,8.22-22.18,15.2-35,19.47-18.8,6.23-37.74,12-56.54,18.23-19,6.26-37.89,12.59-56.68,19.33-19.76,7.09-38.43,16.6-56.38,27.44-14.21,8.58-28,17.9-42.25,26.41-6.08,3.63-11.9,7.37-16.92,12.37a17.15,17.15,0,0,0-5.49,13.61c.22,8.78,2.11,17,4.64,25.33,3.26,10.69,6.7,21.37,9,32.28,6,28.37,2.08,55.94-8.09,82.79-2.72,7.17-5.76,14.2-8.54,21.34a42.05,42.05,0,0,0-1.8,6.46q-3.51,16.38-6.91,32.78c-2,9.73-.27,19,3.16,28.16a7.3,7.3,0,0,0,2.27,3,87.61,87.61,0,0,0,8.94,6.33c2.74,1.62,5.94,2.44,8.65,4.09,6.68,4.06,13.83,5.08,21.55,5.07q77-.18,154,.11c11,0,22,.57,33.06.91a9.46,9.46,0,0,1,3.76.52c1,.48,2.17,1.73,2.14,2.6s-1.35,1.86-2.26,2.58c-.42.32-1.23.2-1.86.18-12.58-.57-25.15-1.58-37.73-1.64-49.4-.22-98.8-.14-148.19-.16-2.24,0-4.47.12-6.71.21a25.32,25.32,0,0,1-13.37-3,54,54,0,0,0-10-4.49c-12.25-3.68-18.66-12.56-22.69-24-2.75-7.79-1.54-15.43-.34-23.17,3-19.23,9.16-37.49,16.43-55.46a162.6,162.6,0,0,0,11.34-43.94,130.2,130.2,0,0,0-3.77-48.46c-2.71-9.85-5.78-19.61-8.79-29.38a62.73,62.73,0,0,1-2.38-25.54,31.23,31.23,0,0,1,.69-3.16ZM461.63,483a5.2,5.2,0,0,0-.88.84,215.62,215.62,0,0,0-21.93,50.92c-3.76,13.47-5,27,.75,40.39a73,73,0,0,0,10.32,17.76c10.51,12.8,22,24.44,36.48,32.9,4,2.34,7.83,4.95,11.7,7.51a132.92,132.92,0,0,1,27.54,24.42c19.09,22.18,27.08,47.79,23.37,76.87C546.91,751,540.39,765,526.78,775c-11,8.1-22.86,13.55-37,10-1.84-.46-3,.18-4.2,1.42-6.64,6.79-14.37,12.2-22.42,17.14-5.72,3.51-11.48,6.95-17.35,10.21a79.22,79.22,0,0,0-20,15.57c-14.06,15.3-22.12,33.25-21.71,54.24.43,22.4,7.77,42.61,21.39,60.41a215.46,215.46,0,0,0,26.84,28.68,65.25,65.25,0,0,0,29.88,15.49,76.25,76.25,0,0,0,31,1c17.21-3.23,29.37-12.74,34.22-30.22.77-2.77,1.52-5.55,2.13-8.36a79.44,79.44,0,0,1,13.32-29.5,11.5,11.5,0,0,0,2.06-9.34c-1.81-10.91-2.77-21.9-.53-32.89,2.18-10.66,5.78-20.71,14.19-28.16a7.64,7.64,0,0,0,2.71-6.17c.18-6.55-.1-13.19,1-19.6,2.84-17.33,6.29-34.56,9.47-51.84,1-5.31,3.33-10.26,4.46-15.42a237.37,237.37,0,0,0,4.29-29.36c1.66-18.14-1.24-36-4-53.88-1.39-9-3.25-17.92-4.54-26.92-1.89-13.12,2.18-27.72,18.93-35.12A58,58,0,0,0,616,609.3c-3.35-1-5.41-1.92-7.55-2.19-8.83-1.11-16.94-4.4-25.15-7.57-20.67-8-32-23.5-36.69-44.55a31.48,31.48,0,0,1,3.67-23.59c4.86-8.18,14.26-11.79,23.21-8.5a45.39,45.39,0,0,1,10.7,6.16c4.77,3.49,9.12,7.54,13.79,11.16a21.26,21.26,0,0,0,17.63,4.16,36.85,36.85,0,0,0,21.75-13.09,102.62,102.62,0,0,0,11.08-16.17c12.44-22.46,28.52-42,47.19-59.48C723,430,755.31,416.23,793,415.7c10.07-.14,20.13-.45,30.19-.85a61.56,61.56,0,0,0,20.62-4c8.31-3.33,13.93-9,14.87-18.31a37.24,37.24,0,0,0-.31-9.55c-3.88-24.29-14.85-44.73-33.72-60.66-14.8-12.5-30.27-24.09-47.44-33.21C767.5,284,757.8,278.75,747.85,274c-28.45-13.57-58.17-23-89.62-26.58-22.13-2.53-43.36,0-63.44,10.07-1.95,1-3.81,2.13-5.61,3.15,4,12.49,5.05,17.13,3.86,25.32-2.68,18.54-10.62,34.42-25.43,46.29-3.31,2.65-7.36,4.45-11.27,6.21a18.93,18.93,0,0,1-7,1.4c-5.82.22-10-2.76-11.13-8.43A30.15,30.15,0,0,1,538,321c1.92-12.23,7.07-23.21,14.44-33.06a135.68,135.68,0,0,1,25.44-26c1.24-1,2.47-2,3.77-3A19.19,19.19,0,0,0,571.2,250a36.33,36.33,0,0,0-16-2.41c-12.32.71-23.78,4.63-35,9.52-25.38,11.11-39.71,38.6-38.18,62.95.57,9.23,2.07,18.41,3.15,27.61,2.18,18.46,3.12,36.91.46,55.44-2,13.84-5,27.31-11.68,39.78-2,3.8-3.72,7.78-5.51,11.7a25,25,0,0,0-1,3.19c6.87-5.77,13.21-11.39,19.86-16.62,8.08-6.36,16.86-11.55,26.93-14.26,7.08-1.91,14.19-2.58,21.28-.41,19.46,5.95,32.33,22.95,23.15,46.58-6,15.49-17.93,24.83-34,28a66.08,66.08,0,0,1-50.06-9.43C470.28,488.79,465.94,485.86,461.63,483ZM779.81,776.54a7.66,7.66,0,0,0-.25-1.73c-3.74-8.3-7.6-16.55-11.2-24.91-1.37-3.16-3.42-4.55-6.81-4.9-15.37-1.62-30-6.07-44.33-11.72C708,729.64,699,725.39,691,719.47a35.38,35.38,0,0,1-8-8.07c-3.23-4.65-2-9.79,2.74-12.91a28,28,0,0,1,7.78-3.55,38.1,38.1,0,0,1,22.2.5,76,76,0,0,1,20,10.2,112.5,112.5,0,0,1,31.42,31.88c1.53,2.4,3.32,3.27,6.14,3.62,10.09,1.26,20.13.4,30.13-.48a66.23,66.23,0,0,0,14.87-3.47A22.94,22.94,0,0,0,832.35,725c2.32-5,4.06-10.35,6-15.56a53.62,53.62,0,0,0,2.73-7.61c2.48-11.53,4.08-23.23,7.75-34.51,1.87-5.74,2.86-11.77,4.06-17.7,2.86-14.12,9.43-26.8,15.78-39.47,5.35-10.65,9.79-21.23,10.62-33.4,1.12-16.28,2.36-32.51.44-48.78-.74-6.18-2-12.3-2.74-18.48-1.68-13.31-3.14-26.65-4.81-40-1.8-14.24-5.75-27.79-13.08-40.27a32.1,32.1,0,0,0-11.26-11.51,6.16,6.16,0,0,0-5.44-.87c-9.55,3.13-19.42,3.53-29.35,3.72-9.42.17-18.85.39-28.26.89-28.57,1.51-53.87,11.82-75.9,29.73a226.36,226.36,0,0,0-54.36,63.91A178.23,178.23,0,0,1,644,531.64a46.1,46.1,0,0,1-20.12,15.79c-10.94,4.46-21.24,3.53-30.59-4.12-4.08-3.34-8-6.86-12.22-10a37.78,37.78,0,0,0-8.55-5.17c-7.32-2.94-14.56-.05-18.27,6.94a24.63,24.63,0,0,0-3,15.29c2.69,17.86,10.72,32.5,27.18,41.1,9.47,5,19.45,8.9,30.22,10.41a29.05,29.05,0,0,1,8.22,2.43c5.21,2.48,5.5,7.16.7,10.36-2.78,1.85-5.85,3.26-8.77,4.91-7.64,4.33-11.12,11.28-11.84,19.68a46.38,46.38,0,0,0,.53,11c1.74,11.2,3.86,22.34,5.64,33.54,3.36,21.11,4.2,42.27.47,63.45-1.16,6.6-2.31,13.21-3.82,19.74-.81,3.54-2.8,6.82-3.51,10.36q-4.51,22.54-8.53,45.18a94.88,94.88,0,0,0-1.15,23.39l11,3.36a26.07,26.07,0,0,0,1.14-2.41A47.06,47.06,0,0,1,610.55,829c2.73-2.69,5.37-5.5,8.26-8,17.09-14.85,36-26.49,58.13-32.23,8.94-2.33,18.07-4,27.2-5.57,13.07-2.18,26.23-3.81,39.32-5.91a116.06,116.06,0,0,1,31-1.06C776.2,776.4,777.94,776.43,779.81,776.54Zm11.25,170.91c1.4,7.62,2.75,14.49,3.93,21.4,2.88,17,1.22,33.3-6.47,49a52.59,52.59,0,0,1-25.24,25.2,34.78,34.78,0,0,1-31,.2,57.8,57.8,0,0,1-19.55-14.42,51,51,0,0,1,16.15-80.5,78.84,78.84,0,0,1,14.46-5c11.76-2.91,23.76-2.71,35.76-2.17,1.33.06,2.67,0,4.09,0a13.44,13.44,0,0,0-.18-2c-6-21-15.18-40.34-29.27-57.15-7-8.39-15.1-15.65-24.79-20.9-10-5.39-20.48-7.81-31.87-6.31A71.79,71.79,0,0,0,668.88,865,115.38,115.38,0,0,0,640,889.37c-23.49,28-31.16,59.45-20.41,94.87a227.15,227.15,0,0,0,47.49,84.62,134.67,134.67,0,0,0,47.13,34.65c17.36,7.7,35.33,13.09,54.28,14.94,15.91,1.56,31.49.55,46.79-4.8,23.15-8.1,44.25-19.94,64.1-34.09a178.5,178.5,0,0,0,19-16.06c11.5-10.92,21.58-23.13,31.28-35.65a223.25,223.25,0,0,1,35.57-36.16,91.63,91.63,0,0,1,31-16.84c5.48-1.7,11-3.29,16.6-4.63,14.66-3.54,29.63-4.67,44.63-5.65a16.27,16.27,0,0,0,7.22-2.07c5.18-3.12,10-6.86,15.11-10.08a10.72,10.72,0,0,0,4.61-6.33,68.24,68.24,0,0,1,12-21.67c8.32-10.42,18.75-18.27,30-25a346.23,346.23,0,0,1,45.12-22.19c19.6-8.18,39.27-16.23,58.56-25.11,19.82-9.12,38.31-20.56,54.39-35.5,21.33-19.81,31.67-44,28.9-73.39-1.37-14.47-6.61-27.23-16.61-37.9-3.75-4-8-7.3-13.48-8.75-3.73-1-7.26-.46-9.73,2.36a44.76,44.76,0,0,0-7,10.18,59.16,59.16,0,0,0-4.08,12.74q-6,27.38-11.52,54.85c-5.83,29-21.71,50-49.12,61.81a104.16,104.16,0,0,1-11.23,4.14,256.36,256.36,0,0,1-65.55,10.72c-14.85.47-29.73-.13-44.59.18a95.26,95.26,0,0,0-19,2.23c-24.7,5.63-46.13,17.8-64.9,34.51-8.34,7.41-15.82,15.81-23.46,24a101.35,101.35,0,0,1-39.44,26.42c-27.66,10.24-56.32,12.49-85.44,10.91-15.31-.83-30.59-2.25-45.89-3.38C798.85,947.92,795.22,947.72,791.06,947.45Zm-5.89-.4a138.22,138.22,0,0,0-24.73-.72c-9.29.49-18.4,2-27,5.69-17.75,7.55-29.48,25-28.7,43.72.86,20.73,14.66,37.72,34.48,44.49a22.78,22.78,0,0,0,5.64,1c13.52,1.06,24-5.31,32.13-15s12.47-21.19,13.69-33.7C792.14,977.19,788.93,962.35,785.17,947.05ZM486.16,778c4.61-4.87,7.88-10.35,11.57-15.54C507.29,749,511,734,510.34,717.63c-.54-12.78-3.08-25.08-9.17-36.39a51.56,51.56,0,0,0-8.44-11.5c-4.77-4.85-9.44-4.88-14.38-.35a47.66,47.66,0,0,0-7.94,9.51c-10.22,16.07-14.62,33.89-15,52.78-.26,13.35,4.78,24.67,14.21,33.93,3.73,3.68,8.08,6.73,12.23,10A31.81,31.81,0,0,0,486.16,778ZM462.78,477.28c4.77,3.21,9.48,6.45,14.26,9.59a60.79,60.79,0,0,0,45.35,9.3c16.15-2.92,27.55-12.27,32.59-28.29,2.43-7.73,2.31-15.52-2-22.69-6.2-10.27-19.44-16.27-31.32-14.48a52.43,52.43,0,0,0-23.79,9.56c-8.57,6.38-16.68,13.37-24.93,20.17C467.83,464.64,464.6,470.06,462.78,477.28ZM584.34,264c-1.33.87-2.41,1.48-3.38,2.24a132.37,132.37,0,0,0-24.69,25.3,70.07,70.07,0,0,0-12.43,26.74,37.13,37.13,0,0,0-.69,10.88c.32,4.13,2.81,5.86,6.93,5.37a16.94,16.94,0,0,0,6.41-1.76c4-2.29,8.15-4.57,11.44-7.7,11.41-10.84,17.8-24.44,20-39.91A36,36,0,0,0,584.34,264ZM762.05,740.12c-1-1.84-1.45-2.82-2.06-3.68a107.1,107.1,0,0,0-35.6-31.5,60.57,60.57,0,0,0-11.46-4.78,29.77,29.77,0,0,0-22,1.3c-5.2,2.44-5.83,5.56-1.7,9.6a53,53,0,0,0,9.08,7c13.84,8.6,29,14.05,44.66,18.15C749,737.74,755.1,738.7,762.05,740.12ZM570,910.65a22.7,22.7,0,0,0,2-1.83c5-6.2,10.13-12.33,15-18.65a49.17,49.17,0,0,0,9.46-21.23,31.34,31.34,0,0,0,.3-9c-.39-3.46-2.12-6.44-5.8-7.49a8.85,8.85,0,0,0-9.24,2.36,38.35,38.35,0,0,0-8.65,13.07,67.13,67.13,0,0,0-4.47,31C568.91,902.55,569.47,906.25,570,910.65Zm624.6-156.36c1,16.35,13.92,24.08,22.81,20C1212.54,764.65,1204.24,759.28,1194.6,754.29ZM1001.7,419.83c.51.29.83.62,1,.56,7.79-2.07,13-7.11,16.15-14.37,1.19-2.78.43-4-2.83-6.38C1008.84,404.62,1005.29,412.22,1001.7,419.83Z"/><path class="cls-4" d="M785.17,947.05c3.76,15.3,7,30.14,5.47,45.46-1.22,12.51-5.64,24.14-13.69,33.7-8.17,9.71-18.61,16.08-32.13,15a22.78,22.78,0,0,1-5.64-1c-19.82-6.77-33.62-23.76-34.48-44.49-.78-18.77,10.95-36.17,28.7-43.72,8.64-3.68,17.75-5.2,27-5.69A138.22,138.22,0,0,1,785.17,947.05Z"/><path class="cls-4" d="M486.16,778a31.81,31.81,0,0,1-4.3-2.39c-4.15-3.23-8.5-6.28-12.23-10-9.43-9.26-14.47-20.58-14.21-33.93.37-18.89,4.77-36.71,15-52.78a47.66,47.66,0,0,1,7.94-9.51c4.94-4.53,9.61-4.5,14.38.35a51.56,51.56,0,0,1,8.44,11.5c6.09,11.31,8.63,23.61,9.17,36.39.69,16.32-3,31.33-12.61,44.79C494,767.61,490.77,773.09,486.16,778Z"/><path class="cls-5" d="M462.78,477.28c1.82-7.22,5.05-12.64,10.14-16.84,8.25-6.8,16.36-13.79,24.93-20.17a52.43,52.43,0,0,1,23.79-9.56c11.88-1.79,25.12,4.21,31.32,14.48,4.33,7.17,4.45,15,2,22.69-5,16-16.44,25.37-32.59,28.29a60.79,60.79,0,0,1-45.35-9.3C472.26,483.73,467.55,480.49,462.78,477.28Z"/><path class="cls-5" d="M584.34,264a36,36,0,0,1,3.56,21.16c-2.17,15.47-8.56,29.07-20,39.91-3.29,3.13-7.45,5.41-11.44,7.7a16.94,16.94,0,0,1-6.41,1.76c-4.12.49-6.61-1.24-6.93-5.37a37.13,37.13,0,0,1,.69-10.88,70.07,70.07,0,0,1,12.43-26.74A132.37,132.37,0,0,1,581,266.25C581.93,265.49,583,264.88,584.34,264Z"/><path class="cls-4" d="M762.05,740.12c-6.95-1.42-13.09-2.38-19.06-3.94-15.66-4.1-30.82-9.55-44.66-18.15a53,53,0,0,1-9.08-7c-4.13-4-3.5-7.16,1.7-9.6a29.77,29.77,0,0,1,22-1.3,60.57,60.57,0,0,1,11.46,4.78,107.1,107.1,0,0,1,35.6,31.5C760.6,737.3,761,738.28,762.05,740.12Z"/><path class="cls-4" d="M570,910.65c-.53-4.4-1.09-8.1-1.41-11.82a67.13,67.13,0,0,1,4.47-31,38.35,38.35,0,0,1,8.65-13.07,8.85,8.85,0,0,1,9.24-2.36c3.68,1.05,5.41,4,5.8,7.49a31.34,31.34,0,0,1-.3,9A49.17,49.17,0,0,1,587,890.17c-4.86,6.32-10,12.45-15,18.65A22.7,22.7,0,0,1,570,910.65Z"/><path class="cls-4" d="M1194.6,754.29c9.64,5,17.94,10.36,22.81,20C1208.52,778.37,1195.57,770.64,1194.6,754.29Z"/><path class="cls-4" d="M1001.7,419.83c3.59-7.61,7.14-15.21,14.36-20.19,3.26,2.38,4,3.6,2.83,6.38-3.11,7.26-8.36,12.3-16.15,14.37C1002.53,420.45,1002.21,420.12,1001.7,419.83Z"/></svg>